<svg width="40" height="40" viewBox="0 0 40 40" fill="none" xmlns="http://www.w3.org/2000/svg">
<rect width="40" height="40" rx="6" fill="#633CFF"/>
<path d="M18.6667 26.6667H13.3334C11.4889 26.6667 9.91691 26.0164 8.61735 24.716C7.3178 23.4155 6.66758 21.8436 6.66669 20C6.6658 18.1564 7.31602 16.5844 8.61735 15.284C9.91869 13.9836 11.4907 13.3333 13.3334 13.3333H18.6667V16H13.3334C12.2222 16 11.2778 16.3889 10.5 17.1667C9.72224 17.9444 9.33335 18.8889 9.33335 20C9.33335 21.1111 9.72224 22.0555 10.5 22.8333C11.2778 23.6111 12.2222 24 13.3334 24H18.6667V26.6667ZM14.6667 21.3333V18.6667H25.3334V21.3333H14.6667ZM21.3334 26.6667V24H26.6667C27.7778 24 28.7222 23.6111 29.5 22.8333C30.2778 22.0555 30.6667 21.1111 30.6667 20C30.6667 18.8889 30.2778 17.9444 29.5 17.1667C28.7222 16.3889 27.7778 16 26.6667 16H21.3334V13.3333H26.6667C28.5111 13.3333 30.0836 13.9836 31.384 15.284C32.6845 16.5844 33.3342 18.1564 33.3334 20C33.3325 21.8436 32.6822 23.416 31.3827 24.7173C30.0831 26.0187 28.5111 26.6684 26.6667 26.6667H21.3334Z" fill="white"/>
</svg>
